<mxfile host="app.diagrams.net" modified="2023-12-21T10:20:13.179Z" agent="Mozilla/5.0 (Macintosh; Intel Mac OS X 10_15_7) AppleWebKit/537.36 (KHTML, like Gecko) Chrome/119.0.0.0 Safari/537.36" version="22.1.11" etag="iyHNFurLj5mDlsZw496C" type="github">
  <diagram name="Page-1" id="9KKYy1H0B4UUKSuq_p7k">
    <mxGraphModel>
      <root>
        <mxCell id="0" />
        <mxCell id="1" parent="0" />
      </root>
    </mxGraphModel>
  </diagram>
</mxfile>
